<svg version="1.1" id="Calque_1" xmlns="http://www.w3.org/2000/svg" x="0" y="0" viewBox="0 0 566.93 113.23" xml:space="preserve"><style>.st0{fill:#ffd615}</style><g id="Composant_2_1"><path id="Tracé_1" class="st0" d="M515.99 97.63l42.35-47.92c-.7-.7-1.46-1.41-2.32-2.13l-42.86 48.5c.98.48 1.94 1.01 2.83 1.55z"/><path id="Tracé_2" class="st0" d="M508.72 94.16l43.62-49.36c-.85-.57-1.76-1.13-2.72-1.69l-44.15 49.97c1.11.34 2.2.69 3.25 1.08z"/><path id="Tracé_3" class="st0" d="M498.02 91.26l45.22-51.18c-1.04-.4-2.11-.78-3.23-1.11l-45.67 51.68c1.26.19 2.5.38 3.68.61z"/><path id="Tracé_4" class="st0" d="M485.23 89.64l46.42-52.53c-1.23-.19-2.5-.34-3.79-.47l-46.6 52.73c1.35.07 2.66.17 3.97.27z"/><path id="Tracé_5" class="st0" d="M512.98 36.28l-46.73 52.87c1.43-.02 2.85-.05 4.25-.05l46.78-52.93c-1.42.01-2.85.05-4.3.11z"/><path id="Tracé_6" class="st0" d="M453.88 89.61l46.11-52.18c-1.6.21-3.21.45-4.84.72l-45.7 51.72c1.5-.1 2.96-.19 4.43-.26z"/><path id="Tracé_7" class="st0" d="M435.51 91l43.87-49.64c-1.68.39-3.44.79-5.27 1.2l-43.22 48.89c1.55-.14 3.09-.3 4.62-.45z"/><path id="Tracé_8" class="st0" d="M415.45 93.21l41.33-46.76-5.25 1.17-40.81 46.17c1.57-.19 3.15-.38 4.73-.58z"/><path id="Tracé_9" class="st0" d="M394.94 95.92l39.19-44.34c-1.75.4-3.52.81-5.29 1.22l-38.7 43.79c1.6-.23 3.2-.45 4.8-.67z"/><path id="Tracé_10" class="st0" d="M371.95 99.23l36.77-41.61c-1.8.45-3.6.9-5.4 1.36l-36.2 40.96 4.83-.71z"/><path id="Tracé_11" class="st0" d="M381.34 64.81c-1.13.32-2.25.62-3.36.94-.73.21-1.49.43-2.25.64L343 103.43c1.59-.22 3.19-.44 4.8-.68l33.54-37.94z"/><path id="Tracé_12" class="st0" d="M351.45 73.73c-1.91.59-3.85 1.2-5.82 1.81l-27.37 30.97c1.53-.16 3.08-.33 4.66-.51l28.53-32.27z"/><path id="Tracé_13" class="st0" d="M297.8 108.44l21.75-24.62-5.87 1.88-20.46 23.14c1.55-.13 3.07-.26 4.58-.4z"/><path id="Tracé_14" class="st0" d="M271.88 110.68l14.3-16.17-5.85 1.85-12.99 14.7c1.51-.12 3.03-.25 4.54-.38z"/><path id="Tracé_15" class="st0" d="M252 104.98c-1.52.42-2.89.79-4.07 1.08l-1.39.33-6.04 6.84 4.53-.36 6.97-7.89z"/><path id="Tracé_16" class="st0" d="M78.36 94.14c11.07.92 25.83 0 40.44-1.34 75.56-6.99 102.96-16.22 134.68-26.91 9.99-3.37 20.32-6.85 32.79-10.53 12.84-3.79 28.11-9.15 44.26-14.83C374.75 25.01 422.2 6.01 486.49 0c-31.68.31-96.02 1.62-134.83 7.03-54.28 7.56-140.59 48.94-199.77 61.85s-121.97.47-120.66-10.81c1.1-9.36 22.42-17.71 85.9-31.46s167.62-9.42 182.89-8.18c1.37.11 2.09.18 2.09.18C181.36-.08 89.44 15.12 32.45 36.28-21.57 56.33-9.39 86.1 78.36 94.14z"/><path id="Tracé_17" class="st0" d="M545.91 4.54C535.79 2.13 515.85 2.37 506 3.03 440.57 7.37 385.24 28.6 332.81 47.02c-16.25 5.71-31.59 11.09-44.59 14.93-12.36 3.64-22.62 7.1-32.55 10.45-32.14 10.83-59.87 20.17-136.24 27.23-11.63 1.08-22.56 1.55-32.78 1.55-2.38 0-4.72-.03-7.03-.08 34.38 7.45 69.75 9.25 104.71 5.32 53.52-6.25 107.06-23.78 142.26-34.81S418 41.84 486.49 29.93s77.89 13.19 77.89 13.19 12.67-31.15-18.47-38.58z"/></g></svg>